<svg width="121" height="136" viewBox="0 0 121 136" fill="none" xmlns="http://www.w3.org/2000/svg">
<path d="M90.4235 93.1221C68.7001 111.677 34.0785 116.429 5.45337 93.8009C23.1036 138.266 84.6533 153.427 120.293 110.546L90.4235 93.1221Z" fill="#16205F"/>
<path d="M63.6087 100.476C18.8042 95.2719 23.3299 21.8422 68.4741 0.00570005C22.8774 -0.560009 -8.01059 41.0765 1.83296 83.0525C25.3665 108.962 58.1779 102.966 63.6087 100.476Z" fill="#5EB6E1"/>
<path d="M80.5804 1.02393C57.0467 9.50963 42.6775 30.2147 40.9804 49.449C53.3129 29.3096 75.1495 28.2913 91.3289 41.0765L119.954 24.6708C111.081 13.1851 97.778 4.19192 80.5804 1.02393Z" fill="#A5F0F2"/>
</svg>
