<svg width="32" height="36" viewBox="0 0 32 36" fill="none" xmlns="http://www.w3.org/2000/svg">
<path d="M23.6529 24.3588C17.9705 29.2125 8.9142 30.4555 1.42648 24.5363C6.04341 36.1675 22.1435 40.1333 31.4661 28.9165L23.6529 24.3588Z" fill="#EDEDED"/>
<path d="M16.6387 26.2825C4.91878 24.9211 6.10261 5.71346 17.9113 0.00149101C5.98423 -0.146486 -2.0954 10.7447 0.479462 21.7247C6.63534 28.5022 15.2181 26.9336 16.6387 26.2825Z" fill="#EDEDED"/>
<path d="M21.0781 0.267853C14.9222 2.48753 11.1635 7.90354 10.7196 12.9348C13.9455 7.66678 19.6575 7.40042 23.8897 10.7447L31.3774 6.45336C29.0564 3.44896 25.5767 1.09653 21.0781 0.267853Z" fill="#EDEDED"/>
</svg>
