<svg width="293" height="292" viewBox="0 0 293 292" fill="none" xmlns="http://www.w3.org/2000/svg">
<path d="M5.89267 51.3201C-1.83526 59.0706 -0.183841 69.9836 5.96566 76.1347C6.212 76.3723 30.9104 100.008 65.645 134.803C66.0675 135.231 66.5705 135.571 67.1249 135.802C67.6794 136.034 68.2741 136.153 68.8749 136.153C69.4756 136.153 70.0704 136.034 70.6248 135.802C71.1792 135.571 71.6822 135.231 72.1047 134.803C72.9599 133.946 73.4404 132.784 73.4404 131.572C73.4404 130.36 72.9599 129.198 72.1047 128.341C66.8676 123.095 61.886 118.132 57.1598 113.434L71.6576 98.9111C72.4886 98.0492 72.9485 96.8948 72.9381 95.6966C72.9277 94.4984 72.4479 93.3522 71.6021 92.5049C70.7563 91.6576 69.6121 91.177 68.4159 91.1666C67.2198 91.1562 66.0675 91.6168 65.2071 92.4492L50.6727 107.009C43.6546 100.067 36.614 93.1483 29.5509 86.2524L62.5338 53.212C63.3648 52.3501 63.8246 51.1957 63.8142 49.9975C63.8038 48.7993 63.324 47.6531 62.4782 46.8058C61.6324 45.9585 60.4882 45.4779 59.292 45.4675C58.0959 45.4571 56.9436 45.9177 56.0832 46.7502L23 79.8911C16.2848 73.3744 12.4162 69.6728 12.3524 69.6088C10.4272 67.6803 7.89992 62.2513 12.3524 57.7911L57.9718 12.092C59.7327 10.3006 64.4224 6.74518 69.5683 11.8726C69.7964 12.1285 92.8342 38.3415 127.998 73.5664C128.858 74.3988 130.01 74.8594 131.207 74.849C132.403 74.8386 133.547 74.358 134.393 73.5107C135.238 72.6634 135.718 71.5172 135.729 70.319C135.739 69.1208 135.279 67.9664 134.448 67.1045C99.5037 32.1082 76.6393 6.09626 76.2196 5.62099C67.7161 -2.87904 57.4609 -0.329033 51.5212 5.62099L5.89267 51.3201ZM199.392 220.407C198.537 219.55 197.376 219.069 196.167 219.069C194.957 219.069 193.797 219.55 192.941 220.407L178.425 234.939C173.787 230.23 169.134 225.535 164.466 220.855C163.605 220.022 162.453 219.561 161.257 219.572C160.061 219.582 158.917 220.063 158.071 220.91C157.225 221.757 156.745 222.904 156.735 224.102C156.724 225.3 157.184 226.454 158.015 227.316C177.563 246.85 196.811 266.682 215.751 286.807C218.881 289.952 223.169 291.679 227.822 291.679C232.612 291.679 237.457 289.805 240.459 286.789L286.06 240.569C291.799 234.82 292.127 225.068 286.772 219.685L225.587 158.402C224.726 157.57 223.574 157.109 222.378 157.119C221.182 157.13 220.038 157.611 219.192 158.458C218.346 159.305 217.866 160.451 217.856 161.65C217.845 162.848 218.305 164.002 219.136 164.864L280.321 226.146C282.146 227.974 281.799 231.923 279.6 234.126L233.99 280.346C232.941 281.406 230.559 282.539 227.822 282.539C226.253 282.539 224.008 282.155 222.311 280.446C222.22 280.346 218.397 276.26 211.764 269.305L245.012 235.999C245.842 235.137 246.302 233.983 246.292 232.785C246.282 231.587 245.802 230.44 244.956 229.593C244.11 228.746 242.966 228.265 241.77 228.255C240.574 228.244 239.421 228.705 238.561 229.537L205.45 262.706C198.612 255.585 191.739 248.499 184.83 241.447L199.392 226.859C200.245 226.003 200.723 224.843 200.723 223.633C200.723 222.423 200.245 221.263 199.392 220.407ZM1.29423 290.628C1.8764 291.223 2.61002 291.648 3.41571 291.856C4.2214 292.063 5.06848 292.047 5.8653 291.807L97.1042 264.579C97.8373 264.364 98.5033 263.965 99.0384 263.419L254.966 106.168C255.185 105.949 255.294 105.665 255.458 105.419L288.815 72.0035C290.141 70.6849 291.194 69.1165 291.912 67.3887C292.63 65.6608 293 63.8076 293 61.936C293 60.0643 292.63 58.2111 291.912 56.4833C291.194 54.7554 290.141 53.187 288.815 51.8685L241.052 4.03066C235.687 -1.34355 226.317 -1.34355 220.952 4.03066L186.838 38.2044C186.619 38.4238 186.5 38.7071 186.336 38.963L30.1713 195.409C29.6609 195.918 29.2792 196.542 29.0582 197.228L0.226734 286.021C-0.032643 286.814 -0.0702743 287.662 0.117931 288.474C0.306137 289.286 0.712977 290.031 1.29423 290.628ZM190.323 47.8926L199.803 57.3889L58.1725 199.65L42.4156 196.067L190.323 47.8926ZM63.8658 206.88L206.262 63.8599L228.488 86.1245L84.8052 228.212H63.8658V206.88ZM245.285 102.96L97.0768 252.433L91.8123 234.135L234.939 92.5863L245.285 102.96ZM36.4303 204.074L54.742 208.242V232.782C54.742 233.994 55.2226 235.156 56.0781 236.013C56.9337 236.87 58.094 237.352 59.3039 237.352H83.245L89.0295 257.46L11.586 280.574L36.4303 204.074ZM227.412 10.4925C228.38 9.56244 229.669 9.04315 231.011 9.04315C232.352 9.04315 233.642 9.56244 234.61 10.4925L282.374 58.3394C282.85 58.8111 283.228 59.373 283.486 59.9923C283.744 60.6116 283.876 61.276 283.875 61.947C283.874 62.618 283.74 63.2821 283.481 63.9008C283.222 64.5194 282.842 65.0803 282.365 65.5508L251.608 96.3702L196.655 41.3211L227.412 10.4925Z" fill="url(#paint0_linear_135_210)"/>
<defs>
<linearGradient id="paint0_linear_135_210" x1="12.3961" y1="275.653" x2="293.092" y2="58.18" gradientUnits="userSpaceOnUse">
<stop stop-color="#EDEDED"/>
<stop offset="1" stop-color="#A5F0F2"/>
</linearGradient>
</defs>
</svg>
