<svg width="17" height="17" viewBox="0 0 17 17" fill="none" xmlns="http://www.w3.org/2000/svg">
<path d="M11.3386 12.0818L12.8031 10.6173C13.0003 10.4225 13.2499 10.2892 13.5214 10.2335C13.793 10.1778 14.0749 10.2021 14.3329 10.3035L16.1177 11.0161C16.3784 11.122 16.602 11.3026 16.7602 11.5353C16.9185 11.768 17.0043 12.0423 17.0069 12.3237V15.5926C17.0053 15.784 16.9651 15.9731 16.8886 16.1485C16.812 16.324 16.7008 16.4821 16.5615 16.6135C16.4223 16.7448 16.2579 16.8466 16.0782 16.9127C15.8986 16.9788 15.7074 17.0079 15.5162 16.9982C3.00953 16.2202 0.485962 5.62903 0.00870663 1.57562C-0.0134479 1.37657 0.0067941 1.17509 0.0681009 0.984422C0.129408 0.793756 0.23039 0.618231 0.364404 0.469395C0.498418 0.320559 0.662427 0.201785 0.845641 0.120886C1.02886 0.0399873 1.22712 -0.0012024 1.4274 2.67191e-05H4.58513C4.86691 0.000860796 5.142 0.0859768 5.37502 0.244427C5.60803 0.402877 5.78832 0.627415 5.89268 0.889161L6.60529 2.67397C6.71006 2.93094 6.73679 3.2131 6.68215 3.48518C6.6275 3.75726 6.49389 4.00721 6.29802 4.2038L4.83357 5.66825C4.83357 5.66825 5.67693 11.3757 11.3386 12.0818Z" fill="#EDEDED"/>
</svg>
