<svg width="17" height="17" viewBox="0 0 17 17" fill="none" xmlns="http://www.w3.org/2000/svg">
<path d="M10.8176 9.3571C11.2007 9.47761 11.5676 9.6441 11.9106 9.85294L11.8886 9.84019C12.2633 10.0066 12.587 10.2014 12.8824 10.4302L12.8718 10.4224C12.886 10.4656 12.8945 10.5145 12.8945 10.5662L12.8938 10.5889V10.5882C12.8831 10.8921 12.8158 11.1775 12.7018 11.4375L12.7075 11.4226C12.5438 11.7506 12.2711 12.0034 11.9375 12.138L11.9276 12.1416C11.5824 12.322 11.2006 12.4216 10.8113 12.4327H10.807C10.0638 12.3371 9.34553 12.1011 8.69052 11.7371L8.72098 11.7527C8.02525 11.4375 7.39258 10.9985 6.85381 10.4571L6.85311 10.4564C6.26546 9.84459 5.73264 9.18235 5.26078 8.47736L5.22749 8.42494C4.75923 7.81284 4.48756 7.07316 4.44832 6.30349L4.44761 6.29428V6.20645C4.458 5.87767 4.53521 5.55445 4.67452 5.25646C4.81383 4.95848 5.01233 4.69197 5.25794 4.47316L5.26007 4.47104C5.41179 4.31987 5.61614 4.2333 5.83028 4.22949H5.83098C5.90253 4.23162 5.97123 4.23729 6.03782 4.2472L6.02861 4.24579C6.09023 4.25499 6.16177 4.26066 6.23544 4.26208H6.23757C6.34069 4.25205 6.44415 4.27754 6.53082 4.33433L6.5294 4.33362C6.60519 4.4172 6.66327 4.51849 6.69798 4.6297L6.6994 4.63537C6.75795 4.78176 6.87884 5.10381 7.06206 5.60153C7.15769 5.82395 7.25119 6.09807 7.32627 6.37999L7.33619 6.42461C7.2851 6.67114 7.15202 6.8931 6.95865 7.05432L6.95652 7.05574C6.70388 7.32301 6.57757 7.49301 6.57757 7.56573C6.58027 7.62537 6.6002 7.68294 6.63494 7.73148L6.63423 7.73078C6.90818 8.29712 7.28698 8.80642 7.75056 9.23173L7.7541 9.23527C8.23942 9.67246 8.78349 10.0396 9.37052 10.3261L9.41231 10.3445C9.48408 10.3911 9.56696 10.4177 9.65243 10.4217H9.65385C9.76388 10.4217 9.96174 10.2442 10.2474 9.88906C10.5331 9.53395 10.723 9.3564 10.8169 9.3564L10.8176 9.3571ZM8.58852 15.1768H8.6041C9.53419 15.1781 10.4543 14.9853 11.3057 14.6108L11.2625 14.6278C12.9313 13.9237 14.2325 12.6225 14.9196 10.9983L14.9366 10.9537C15.2837 10.1653 15.4855 9.2459 15.4855 8.27973C15.4855 7.31357 15.2837 6.39415 14.9196 5.56187L14.9366 5.60578C14.2325 3.93695 12.9313 2.63575 11.3071 1.94867L11.2625 1.93167C10.4741 1.58459 9.55468 1.38271 8.58852 1.38271C7.62235 1.38271 6.70294 1.58459 5.87065 1.94867L5.91457 1.93167C4.24574 2.63575 2.94453 3.93695 2.25745 5.56116L2.24045 5.60578C1.87524 6.45276 1.68837 7.36588 1.6915 8.28823C1.68921 9.74656 2.15581 11.167 3.02245 12.3399L3.00899 12.3215L2.14129 14.8807L4.79894 14.0349C5.90917 14.7827 7.21808 15.1804 8.55664 15.1768H8.58993H8.58852ZM8.58852 4.81206e-05H8.61189C9.76506 4.81206e-05 10.8616 0.242297 11.8525 0.679338L11.8008 0.658796C13.8018 1.50667 15.3623 3.06712 16.1896 5.01433L16.2102 5.06816C16.6267 6.0152 16.8689 7.11949 16.8689 8.28044C16.8689 9.4414 16.6267 10.5457 16.1896 11.5451L16.2102 11.4927C15.3623 13.4938 13.8018 15.0542 11.8546 15.8815L11.8008 15.9021C10.8608 16.3186 9.76435 16.5608 8.61118 16.5608H8.5871H8.58852H8.55098C7.09252 16.5608 5.72332 16.1776 4.53899 15.5068L4.57936 15.5281L0 17L1.49387 12.5524C0.714078 11.2697 0.303741 9.79647 0.308124 8.29532C0.308124 7.1294 0.550373 6.02016 0.987414 5.01503L0.966872 5.06816C1.81474 3.06712 3.3752 1.50667 5.3224 0.679338L5.37624 0.658796C6.3823 0.22055 7.46848 -0.00377758 8.56585 4.81206e-05H8.58852Z" fill="#EDEDED"/>
</svg>
